<?xml version="1.0" encoding="UTF-8" standalone="no"?>
<!DOCTYPE svg PUBLIC "-//W3C//DTD SVG 1.1//EN" "http://www.w3.org/Graphics/SVG/1.1/DTD/svg11.dtd">
<svg width="100%" height="100%" viewBox="0 0 600 600" version="1.1" xmlns="http://www.w3.org/2000/svg" xmlns:xlink="http://www.w3.org/1999/xlink" xml:space="preserve" xmlns:serif="http://www.serif.com/" style="fill-rule:evenodd;clip-rule:evenodd;stroke-linejoin:round;stroke-miterlimit:2;">
    <g transform="matrix(4.50827,0,0,3.29226,-107.907,-144.437)">
        <rect x="23.573" y="43.872" width="133.451" height="182.246" style="fill:white;"/>
    </g>
    <g transform="matrix(0.851662,0.524092,-0.524092,0.851662,218.508,-118.008)">
        <g transform="matrix(0.512622,0,0,1.09374,150.923,47.4753)">
            <rect x="272.658" y="108.385" width="39.484" height="160.628" style="fill:rgb(161,161,161);"/>
        </g>
        <g transform="matrix(0.512622,0,0,1,153.436,23.7079)">
            <path d="M319.742,63.683L255.257,63.683L255.257,145.363C255.257,149.924 262.48,153.627 271.378,153.627L303.621,153.627C312.518,153.627 319.742,149.924 319.742,145.363L319.742,63.683Z" style="fill:rgb(161,161,161);"/>
        </g>
        <g transform="matrix(0.675605,0,0,0.844301,128.361,263.973)">
            <path d="M300,109.969C300,100.089 289.976,92.068 277.628,92.068L232.885,92.068C220.538,92.068 210.513,100.089 210.513,109.969L210.513,342.026C210.513,351.906 220.538,359.928 232.885,359.928L277.628,359.928C289.976,359.928 300,351.906 300,342.026L300,109.969Z" style="fill:rgb(171,67,67);"/>
        </g>
        <g transform="matrix(1,0,0,1,0,2)">
            <path d="M331.043,325.968C331.043,323.073 328.692,320.722 325.797,320.722L275.831,320.722C272.936,320.722 270.585,323.073 270.585,325.968L270.585,336.46C270.585,339.355 272.936,341.706 275.831,341.706L325.797,341.706C328.692,341.706 331.043,339.355 331.043,336.46L331.043,325.968Z" style="fill:rgb(171,67,67);"/>
        </g>
    </g>
</svg>
